Coordinates
version=1
nRows=19
nColumns=36
inDegrees=yes

Units are S.I. units (second, meters, Newtons, ...)
If the header above contains a line with 'inDegrees', this indicates whether rotational values are in degrees (yes) or radians (no).

endheader
time	pelvis_tilt	pelvis_list	pelvis_rotation	pelvis_tx	pelvis_ty	pelvis_tz	hip_flexion_r	hip_adduction_r	hip_rotation_r	knee_angle_r	knee_angle_r_beta	ankle_angle_r	subtalar_angle_r	mtp_angle_r	hip_flexion_l	hip_adduction_l	hip_rotation_l	knee_angle_l	knee_angle_l_beta	ankle_angle_l	subtalar_angle_l	mtp_angle_l	lumbar_extension	lumbar_bending	lumbar_rotation	arm_flex_r	arm_add_r	arm_rot_r	elbow_flex_r	pro_sup_r	arm_flex_l	arm_add_l	arm_rot_l	elbow_flex_l	pro_sup_l
      3.91666670	     -4.91060448	      0.39665409	     -1.60416507	      0.35746776	      0.95495718	     -0.04022655	      0.34562170	     -7.22717924	     -3.50529787	      1.39116089	      0.02428034	      1.46142919	    -10.45877137	     -7.49999987	      1.81798761	     -4.46531329	      0.29397981	      1.06109931	      0.01851968	      0.80444059	     -8.76274761	     -7.49999987	      6.11128674	     -1.44179456	     -1.19136379	   -180.03746072	     -6.37200644	   -244.07760159	     11.31941932	     46.53214217	      6.43938943	    -36.81073999	    -50.97562521	     38.87308749	     82.69785139
      3.93333330	     -4.90438293	      0.40660705	     -1.59595004	      0.35739658	      0.95497383	     -0.04031130	      0.31239103	     -7.24612090	     -3.36815449	      1.32999293	      0.02321276	      1.35154571	    -10.69491556	     -7.49999987	      1.80801684	     -4.43450809	      0.40543676	      1.05396847	      0.01839522	      0.81211646	     -8.91162569	     -7.49999987	      6.07728657	     -1.40231654	     -0.73377418	   -179.62244892	     -6.09941017	   -241.03109727	     10.87089313	     48.69709389	      7.24787158	    -36.73111759	    -51.61100045	     38.51777609	     77.46050346
      3.95000000	     -4.94971449	      0.40591389	     -1.63411905	      0.35735444	      0.95483296	     -0.04040653	      0.34047317	     -7.24431650	     -3.33568166	      1.26824085	      0.02213498	      1.42358321	    -10.55525927	     -7.49999987	      1.85313227	     -4.44714679	      0.34168919	      1.02143193	      0.01782735	      0.87602951	     -8.69707748	     -7.49999987	      6.03665208	     -1.34459573	     -1.90407988	   -180.20618121	     -6.00782754	   -242.79766256	     10.84956459	     45.81731050	      5.52500354	    -36.60993561	    -57.46698167	     39.18482513	     88.29355440
      3.96666670	     -4.95392743	      0.40839316	     -1.65817408	      0.35733482	      0.95477299	     -0.04041117	      0.31740744	     -7.24192079	     -3.27811018	      1.20209128	      0.02098045	      1.36044643	    -10.61749308	     -7.49999987	      1.84964648	     -4.45341398	      0.36905262	      0.99058681	      0.01728900	      0.89025498	     -8.67600842	     -7.49999987	      6.00707814	     -1.34528256	     -1.97647845	   -180.20455989	     -6.09637218	   -242.96603851	     10.93570493	     45.75336247	      5.41695118	    -36.66983193	    -59.05503414	     39.03767317	     89.27744452
      3.98333330	     -4.96975890	      0.40926452	     -1.69814772	      0.35727482	      0.95481800	     -0.04038619	      0.30899041	     -7.22443091	     -3.21120492	      1.18624649	      0.02070391	      1.26767806	    -10.68304848	     -7.49999987	      1.86754770	     -4.47133838	      0.39179573	      0.98233339	      0.01714495	      0.89025407	     -8.63308042	     -7.49999987	      5.99728377	     -1.31964315	     -1.94251788	   -180.12044061	     -6.15725810	   -242.94938858	     11.12435820	     44.94377260	      5.23729208	    -37.07069924	    -58.76572768	     38.41844659	     87.87637931
      4.00000000	     -4.95907047	      0.36851125	     -1.64854011	      0.35728429	      0.95502017	     -0.04036094	      0.23871455	     -7.14976590	     -3.24090798	      1.16658144	      0.02036069	      1.16071214	    -10.75907486	     -7.49999987	      1.87281299	     -4.50379806	      0.45871546	      1.01509600	      0.01771677	      0.86663307	     -8.74366118	     -7.49999987	      5.94959709	     -1.25054132	     -2.10262207	   -179.83980609	     -6.42804861	   -242.65022453	     11.85580013	     44.65052316	      4.89111603	    -37.35770179	    -58.70073334	     38.05728287	     87.80651722
      4.01666670	     -4.95749411	      0.34916588	     -1.63553650	      0.35735228	      0.95508203	     -0.04040207	      0.19494347	     -7.09920141	     -3.26450195	      1.18107956	      0.02061373	      1.07199152	    -10.83523499	     -7.49999987	      1.88108411	     -4.53656962	      0.37652761	      1.04637171	      0.01826263	      0.86608032	     -8.65323023	     -7.49999987	      5.93879399	     -1.18142103	     -1.89784597	   -179.38761666	     -6.59364517	   -241.73994751	     12.66205577	     44.74273404	      5.25530896	    -37.60445509	    -57.26554922	     37.28993484	     85.70873465
      4.03333330	     -4.98686358	      0.28778653	     -1.58802238	      0.35745928	      0.95512279	     -0.04048213	      0.18792299	     -7.00708670	     -3.31917969	      1.19948864	      0.02093503	      1.02595590	    -10.92071592	     -7.49999987	      1.93468441	     -4.59435188	      0.38863467	      1.07260563	      0.01872050	      0.86003348	     -8.80295706	     -7.49999987	      5.98019471	     -1.12378985	     -2.15267922	   -179.38094950	     -6.82597260	   -242.76671433	     13.20130163	     45.51363352	      5.41105736	    -37.01383834	    -60.61144016	     38.56071252	     90.43984095
      4.05000000	     -4.99726916	      0.26255831	     -1.56082741	      0.35742403	      0.95522412	     -0.04054986	      0.17169690	     -6.96242571	     -3.33105899	      1.20861026	      0.02109423	      0.90649542	    -11.07154264	     -7.49999987	      1.97180756	     -4.62375474	      0.29729109	      1.10660585	      0.01931392	      0.81481786	     -8.97631278	     -7.49999987	      6.00069558	     -1.05873289	     -2.29849499	   -179.64464712	     -7.17593529	   -243.27293382	     13.73975858	     45.19359375	      5.50126233	    -36.96749742	    -60.32238234	     38.79191222	     88.39683490
      4.06666670	     -5.05673656	      0.27026814	     -1.49549143	      0.35755774	      0.95529136	     -0.04057272	      0.19420385	     -6.95187684	     -3.33928200	      1.20231763	      0.02098440	      0.70105267	    -11.32468918	     -7.49999987	      2.08354419	     -4.64339223	      0.25492054	      1.13155937	      0.01974944	      0.65728246	     -9.08878569	     -7.49999987	      6.09330049	     -1.02045123	     -1.83898889	   -179.15143213	     -7.06103483	   -241.51259584	     13.78269698	     47.96800712	      6.21707060	    -37.12497064	    -57.61320002	     38.32537516	     82.29287804
      4.08333330	     -5.06750615	      0.23645508	     -1.45845579	      0.35760582	      0.95538205	     -0.04067244	      0.17220134	     -6.90796100	     -3.45322752	      1.20251050	      0.02098777	      0.73418153	    -11.20299767	     -7.49999987	      2.11526207	     -4.68707175	      0.12134398	      1.15170685	      0.02010108	      0.56837438	     -9.12358896	     -7.49999987	      6.13316814	     -1.00561437	     -2.18958448	   -179.66350230	     -7.45017674	   -243.48895091	     14.24653991	     45.45028083	      5.91276236	    -36.84176877	    -59.18001532	     39.22066489	     86.16915405
      4.10000000	     -5.14617082	      0.22948365	     -1.42338898	      0.35767638	      0.95529154	     -0.04068310	      0.24420207	     -6.88830234	     -3.41692489	      1.20287169	      0.02099407	      0.49742792	    -11.54861351	     -7.49999987	      2.22859651	     -4.72076550	      0.17018457	      1.15719063	      0.02019679	      0.49542433	     -9.36505205	     -7.49999987	      6.28571677	     -0.99290642	     -1.46339655	   -179.09288259	     -7.29134988	   -238.98287559	     13.86495998	     49.45038065	      7.24754061	    -36.60672193	    -57.83843741	     39.08266298	     78.18744243
      4.11666670	     -5.16402392	      0.21060795	     -1.37647093	      0.35770291	      0.95533702	     -0.04079117	      0.23851465	     -6.87050958	     -3.54649338	      1.18784878	      0.02073187	      0.54616109	    -11.35434915	     -7.49999987	      2.27230559	     -4.75091860	      0.12083057	      1.13573890	      0.01982238	      0.55811633	     -9.23255763	     -7.49999987	      6.24713545	     -1.05384577	     -2.14265187	   -179.48496700	     -7.65737186	   -240.97572122	     14.36637998	     45.49125299	      6.13218138	    -36.47803099	    -60.79302886	     40.37469467	     91.47581616
      4.13333330	     -5.21427463	      0.21535118	     -1.32279717	      0.35780746	      0.95543844	     -0.04076933	      0.27692362	     -6.87082888	     -3.58900358	      1.17582275	      0.02052198	      0.48786707	    -11.41256328	     -7.49999987	      2.34401272	     -4.76351240	      0.13639385	      1.11742335	      0.01950272	      0.51674869	     -9.27157909	     -7.49999987	      6.27694152	     -1.09637582	     -2.34713338	   -179.56573199	     -7.72092575	   -240.95721100	     14.36481502	     44.96092988	      5.38529704	    -36.72931745	    -60.14772425	     41.04058660	     89.27864233
      4.15000000	     -5.28293166	      0.21617590	     -1.28498529	      0.35788740	      0.95541557	     -0.04084493	      0.32910931	     -6.87115067	     -3.62582717	      1.15878743	      0.02022466	      0.37683017	    -11.45145752	     -7.49999987	      2.43937588	     -4.76937488	      0.19036863	      1.12468774	      0.01962950	      0.49190292	     -9.20342276	     -7.49999987	      6.35970056	     -1.16249374	     -2.08769044	   -179.34038329	     -7.84268457	   -240.24238224	     14.42230093	     45.17747003	      5.67875792	    -36.70165384	    -60.08680835	     41.38570632	     90.93258041
      4.16666670	     -5.33746208	      0.22091177	     -1.26009856	      0.35794705	      0.95544766	     -0.04085491	      0.37817226	     -6.88015561	     -3.63824470	      1.14945781	      0.02006182	      0.38112216	    -11.40168306	     -7.49999987	      2.48952558	     -4.76543558	      0.17072285	      1.10428364	      0.01927339	      0.48965089	     -9.03922505	     -7.49999987	      6.40697576	     -1.18650576	     -2.32681369	   -179.47976058	     -7.84578924	   -240.49823884	     14.24335387	     45.16061106	      5.01483440	    -36.77603502	    -59.98040730	     41.85933509	     89.95985051
      4.18333330	     -5.37776427	      0.25911296	     -1.25670103	      0.35796663	      0.95543855	     -0.04079433	      0.41110603	     -6.91649029	     -3.64832681	      1.13375527	      0.01978776	      0.37984150	    -11.40112286	     -7.49999987	      2.51392589	     -4.71706405	      0.13190597	      1.12395085	      0.01961664	      0.41081070	     -9.02805910	     -7.49999987	      6.47961160	     -1.21830536	     -2.34153423	   -179.67235118	     -7.90387379	   -239.55612785	     14.23460816	     44.08472503	      4.88233652	    -36.83861333	    -59.78529182	     42.10747392	     88.63131875
      4.20000000	     -5.41713530	      0.32716091	     -1.24183500	      0.35803943	      0.95547711	     -0.04072327	      0.43592811	     -6.98878268	     -3.72352047	      1.09759446	      0.01915664	      0.50537527	    -11.26752959	     -7.49999987	      2.54266740	     -4.64994098	      0.06860704	      1.11703985	      0.01949602	      0.32224620	     -8.99166472	     -7.49999987	      6.50102119	     -1.28846991	     -2.36698694	   -179.72178119	     -7.87491532	   -238.47859649	     14.09101577	     44.12592915	      4.47215610	    -37.17056921	    -59.20142953	     42.05305221	     86.73850812
      4.21666670	     -5.42856812	      0.36353139	     -1.22664104	      0.35803106	      0.95540493	     -0.04081162	      0.42427521	     -7.03946929	     -3.86949023	      1.07616057	      0.01878255	      0.51904587	    -11.20313180	     -7.49999987	      2.51884685	     -4.58424972	      0.05516937	      1.11517581	      0.01946349	      0.25580861	     -8.95037625	     -7.49999987	      6.47599690	     -1.31468471	     -2.63090606	   -179.83885483	     -7.95381207	   -238.35964423	     14.20953784	     42.93863595	      4.06873323	    -37.14508772	    -60.60922407	     42.57104592	     87.27915513
